<mxfile host="Electron" modified="2024-02-08T15:53:52.118Z" agent="Mozilla/5.0 (Windows NT 10.0; Win64; x64) AppleWebKit/537.36 (KHTML, like Gecko) draw.io/22.1.16 Chrome/120.0.6099.109 Electron/28.1.0 Safari/537.36" etag="ykUKkXYFoyu6EO6KrAH6" version="22.1.16" type="device">
  <diagram name="Page-1" id="UgkzKDdlbD2YLOSZ790F">
    <mxGraphModel dx="584" dy="836" grid="1" gridSize="10" guides="1" tooltips="1" connect="1" arrows="1" fold="1" page="1" pageScale="1" pageWidth="850" pageHeight="1100" math="0" shadow="0">
      <root>
        <mxCell id="0" />
        <mxCell id="1" parent="0" />
        <mxCell id="WaaS-qGKVErQEOPKYESH-2" value="" style="group;fillColor=#232136;strokeColor=#232136;strokeWidth=25;container=0;" parent="1" vertex="1" connectable="0">
          <mxGeometry x="950" y="440" width="670" height="540" as="geometry" />
        </mxCell>
        <mxCell id="9AoiroFoVsxQzHGqrJnJ-1" value="" style="group" vertex="1" connectable="0" parent="1">
          <mxGeometry x="970" y="440" width="404" height="510" as="geometry" />
        </mxCell>
        <mxCell id="WaaS-qGKVErQEOPKYESH-108" value="" style="rounded=1;whiteSpace=wrap;html=1;labelBackgroundColor=none;strokeColor=#FFFFFF;strokeWidth=3;align=left;verticalAlign=top;fontFamily=Helvetica;fontSize=12;fontColor=#FFFFFF;fillColor=none;arcSize=4;dashed=1;" parent="9AoiroFoVsxQzHGqrJnJ-1" vertex="1">
          <mxGeometry x="2" y="28" width="402" height="482" as="geometry" />
        </mxCell>
        <mxCell id="WaaS-qGKVErQEOPKYESH-103" value="" style="group" parent="9AoiroFoVsxQzHGqrJnJ-1" vertex="1" connectable="0">
          <mxGeometry x="19" y="58" width="370" height="200" as="geometry" />
        </mxCell>
        <mxCell id="WaaS-qGKVErQEOPKYESH-18" value="" style="rounded=1;whiteSpace=wrap;html=1;labelBackgroundColor=none;strokeColor=#DB918D;strokeWidth=3;align=left;verticalAlign=top;fontFamily=Helvetica;fontSize=12;fontColor=#FFFFFF;fillColor=none;arcSize=7;container=0;" parent="WaaS-qGKVErQEOPKYESH-103" vertex="1">
          <mxGeometry width="370" height="200" as="geometry" />
        </mxCell>
        <mxCell id="WaaS-qGKVErQEOPKYESH-21" value="" style="rounded=1;whiteSpace=wrap;html=1;labelBackgroundColor=none;strokeColor=#DB918D;strokeWidth=3;align=left;verticalAlign=top;fontFamily=Helvetica;fontSize=12;fontColor=#FFFFFF;fillColor=none;container=0;" parent="WaaS-qGKVErQEOPKYESH-103" vertex="1">
          <mxGeometry x="192" y="120" width="75" height="60" as="geometry" />
        </mxCell>
        <mxCell id="WaaS-qGKVErQEOPKYESH-22" value="" style="rounded=1;whiteSpace=wrap;html=1;labelBackgroundColor=none;strokeColor=#DB918D;strokeWidth=3;align=left;verticalAlign=top;fontFamily=Helvetica;fontSize=12;fontColor=#FFFFFF;fillColor=none;container=0;" parent="WaaS-qGKVErQEOPKYESH-103" vertex="1">
          <mxGeometry x="102" y="120" width="75" height="60" as="geometry" />
        </mxCell>
        <mxCell id="WaaS-qGKVErQEOPKYESH-27" value="" style="rounded=1;whiteSpace=wrap;html=1;labelBackgroundColor=none;strokeColor=#DB918D;strokeWidth=3;align=left;verticalAlign=top;fontFamily=Helvetica;fontSize=12;fontColor=#FFFFFF;fillColor=none;container=0;" parent="WaaS-qGKVErQEOPKYESH-103" vertex="1">
          <mxGeometry x="103" y="32" width="75" height="60" as="geometry" />
        </mxCell>
        <mxCell id="WaaS-qGKVErQEOPKYESH-28" value="" style="rounded=1;whiteSpace=wrap;html=1;labelBackgroundColor=none;strokeColor=#DB918D;strokeWidth=3;align=left;verticalAlign=top;fontFamily=Helvetica;fontSize=12;fontColor=#FFFFFF;fillColor=none;container=0;" parent="WaaS-qGKVErQEOPKYESH-103" vertex="1">
          <mxGeometry x="15" y="32" width="75" height="60" as="geometry" />
        </mxCell>
        <mxCell id="WaaS-qGKVErQEOPKYESH-29" value="" style="rounded=1;whiteSpace=wrap;html=1;labelBackgroundColor=none;strokeColor=#DB918D;strokeWidth=3;align=left;verticalAlign=top;fontFamily=Helvetica;fontSize=12;fontColor=#FFFFFF;fillColor=none;container=0;" parent="WaaS-qGKVErQEOPKYESH-103" vertex="1">
          <mxGeometry x="192" y="30" width="75" height="60" as="geometry" />
        </mxCell>
        <mxCell id="WaaS-qGKVErQEOPKYESH-30" value="" style="rounded=1;whiteSpace=wrap;html=1;labelBackgroundColor=none;strokeColor=#DB918D;strokeWidth=3;align=left;verticalAlign=top;fontFamily=Helvetica;fontSize=12;fontColor=#FFFFFF;fillColor=none;container=0;" parent="WaaS-qGKVErQEOPKYESH-103" vertex="1">
          <mxGeometry x="280" y="30" width="75" height="60" as="geometry" />
        </mxCell>
        <mxCell id="WaaS-qGKVErQEOPKYESH-31" value="Requeridos" style="text;html=1;strokeColor=none;fillColor=none;align=left;verticalAlign=middle;whiteSpace=wrap;rounded=0;fontSize=12;fontFamily=Helvetica;fontColor=#FFFFFF;container=0;" parent="WaaS-qGKVErQEOPKYESH-103" vertex="1">
          <mxGeometry x="15" width="75" height="30" as="geometry" />
        </mxCell>
        <mxCell id="WaaS-qGKVErQEOPKYESH-32" value="Opcionales" style="text;html=1;strokeColor=none;fillColor=none;align=left;verticalAlign=middle;whiteSpace=wrap;rounded=0;fontSize=12;fontFamily=Helvetica;fontColor=#FFFFFF;container=0;" parent="WaaS-qGKVErQEOPKYESH-103" vertex="1">
          <mxGeometry x="15" y="90" width="75" height="30" as="geometry" />
        </mxCell>
        <mxCell id="WaaS-qGKVErQEOPKYESH-81" value="" style="sketch=0;outlineConnect=0;dashed=0;verticalLabelPosition=bottom;verticalAlign=top;align=center;html=1;fontSize=12;fontStyle=0;aspect=fixed;pointerEvents=1;shape=mxgraph.aws4.iot_thing_temperature_sensor;rounded=1;labelBackgroundColor=none;strokeWidth=3;fontFamily=Helvetica;" parent="WaaS-qGKVErQEOPKYESH-103" vertex="1">
          <mxGeometry x="27.5" y="37" width="50" height="50" as="geometry" />
        </mxCell>
        <mxCell id="WaaS-qGKVErQEOPKYESH-86" value="" style="sketch=0;outlineConnect=0;fontColor=#232F3E;gradientColor=none;strokeColor=#FFFFFF;fillColor=none;dashed=0;verticalLabelPosition=bottom;verticalAlign=top;align=center;html=1;fontSize=12;fontStyle=0;aspect=fixed;shape=mxgraph.aws4.resourceIcon;resIcon=mxgraph.aws4.windfarm;rounded=1;labelBackgroundColor=none;strokeWidth=3;fontFamily=Helvetica;" parent="WaaS-qGKVErQEOPKYESH-103" vertex="1">
          <mxGeometry x="110.5" y="32" width="60" height="60" as="geometry" />
        </mxCell>
        <mxCell id="WaaS-qGKVErQEOPKYESH-87" value="" style="sketch=0;outlineConnect=0;fontColor=#232F3E;gradientColor=none;strokeColor=#FFFFFF;fillColor=none;dashed=0;verticalLabelPosition=bottom;verticalAlign=top;align=center;html=1;fontSize=12;fontStyle=0;aspect=fixed;shape=mxgraph.aws4.resourceIcon;resIcon=mxgraph.aws4.windfarm;rounded=1;labelBackgroundColor=none;strokeWidth=3;fontFamily=Helvetica;" parent="WaaS-qGKVErQEOPKYESH-103" vertex="1">
          <mxGeometry x="199.5" y="32" width="60" height="60" as="geometry" />
        </mxCell>
        <mxCell id="WaaS-qGKVErQEOPKYESH-88" value="" style="sketch=0;outlineConnect=0;fontColor=#232F3E;gradientColor=none;strokeColor=#FFFFFF;fillColor=none;dashed=0;verticalLabelPosition=bottom;verticalAlign=top;align=center;html=1;fontSize=12;fontStyle=0;aspect=fixed;shape=mxgraph.aws4.resourceIcon;resIcon=mxgraph.aws4.windfarm;rounded=1;labelBackgroundColor=none;strokeWidth=3;fontFamily=Helvetica;" parent="WaaS-qGKVErQEOPKYESH-103" vertex="1">
          <mxGeometry x="287.5" y="32" width="60" height="60" as="geometry" />
        </mxCell>
        <mxCell id="WaaS-qGKVErQEOPKYESH-95" value="" style="sketch=0;outlineConnect=0;fontColor=#232F3E;gradientColor=none;strokeColor=#FFFFFF;fillColor=none;dashed=0;verticalLabelPosition=bottom;verticalAlign=top;align=center;html=1;fontSize=12;fontStyle=0;aspect=fixed;shape=mxgraph.aws4.resourceIcon;resIcon=mxgraph.aws4.generic;rounded=1;labelBackgroundColor=none;strokeWidth=3;fontFamily=Helvetica;" parent="WaaS-qGKVErQEOPKYESH-103" vertex="1">
          <mxGeometry x="109.5" y="120" width="60" height="60" as="geometry" />
        </mxCell>
        <mxCell id="WaaS-qGKVErQEOPKYESH-96" value="" style="sketch=0;outlineConnect=0;fontColor=#232F3E;gradientColor=none;strokeColor=#FFFFFF;fillColor=none;dashed=0;verticalLabelPosition=bottom;verticalAlign=top;align=center;html=1;fontSize=12;fontStyle=0;aspect=fixed;shape=mxgraph.aws4.resourceIcon;resIcon=mxgraph.aws4.generic;rounded=1;labelBackgroundColor=none;strokeWidth=3;fontFamily=Helvetica;" parent="WaaS-qGKVErQEOPKYESH-103" vertex="1">
          <mxGeometry x="199.5" y="120" width="60" height="60" as="geometry" />
        </mxCell>
        <mxCell id="WaaS-qGKVErQEOPKYESH-104" value="" style="group" parent="9AoiroFoVsxQzHGqrJnJ-1" vertex="1" connectable="0">
          <mxGeometry x="19" y="282" width="370" height="200" as="geometry" />
        </mxCell>
        <mxCell id="WaaS-qGKVErQEOPKYESH-69" value="" style="rounded=1;whiteSpace=wrap;html=1;labelBackgroundColor=none;strokeColor=#DB918D;strokeWidth=3;align=left;verticalAlign=top;fontFamily=Helvetica;fontSize=12;fontColor=#FFFFFF;fillColor=none;arcSize=7;container=0;" parent="WaaS-qGKVErQEOPKYESH-104" vertex="1">
          <mxGeometry width="370" height="200" as="geometry" />
        </mxCell>
        <mxCell id="WaaS-qGKVErQEOPKYESH-71" value="" style="rounded=1;whiteSpace=wrap;html=1;labelBackgroundColor=none;strokeColor=#DB918D;strokeWidth=3;align=left;verticalAlign=top;fontFamily=Helvetica;fontSize=12;fontColor=#FFFFFF;fillColor=none;container=0;" parent="WaaS-qGKVErQEOPKYESH-104" vertex="1">
          <mxGeometry x="192" y="128" width="75" height="60" as="geometry" />
        </mxCell>
        <mxCell id="WaaS-qGKVErQEOPKYESH-72" value="" style="rounded=1;whiteSpace=wrap;html=1;labelBackgroundColor=none;strokeColor=#DB918D;strokeWidth=3;align=left;verticalAlign=top;fontFamily=Helvetica;fontSize=12;fontColor=#FFFFFF;fillColor=none;container=0;" parent="WaaS-qGKVErQEOPKYESH-104" vertex="1">
          <mxGeometry x="102" y="128" width="75" height="60" as="geometry" />
        </mxCell>
        <mxCell id="WaaS-qGKVErQEOPKYESH-74" value="" style="rounded=1;whiteSpace=wrap;html=1;labelBackgroundColor=none;strokeColor=#DB918D;strokeWidth=3;align=left;verticalAlign=top;fontFamily=Helvetica;fontSize=12;fontColor=#FFFFFF;fillColor=none;container=0;" parent="WaaS-qGKVErQEOPKYESH-104" vertex="1">
          <mxGeometry x="15" y="38" width="75" height="60" as="geometry" />
        </mxCell>
        <mxCell id="WaaS-qGKVErQEOPKYESH-75" value="" style="rounded=1;whiteSpace=wrap;html=1;labelBackgroundColor=none;strokeColor=#DB918D;strokeWidth=3;align=left;verticalAlign=top;fontFamily=Helvetica;fontSize=12;fontColor=#FFFFFF;fillColor=none;container=0;" parent="WaaS-qGKVErQEOPKYESH-104" vertex="1">
          <mxGeometry x="103" y="38" width="75" height="60" as="geometry" />
        </mxCell>
        <mxCell id="WaaS-qGKVErQEOPKYESH-76" value="" style="rounded=1;whiteSpace=wrap;html=1;labelBackgroundColor=none;strokeColor=#DB918D;strokeWidth=3;align=left;verticalAlign=top;fontFamily=Helvetica;fontSize=12;fontColor=#FFFFFF;fillColor=none;container=0;" parent="WaaS-qGKVErQEOPKYESH-104" vertex="1">
          <mxGeometry x="192" y="38" width="75" height="60" as="geometry" />
        </mxCell>
        <mxCell id="WaaS-qGKVErQEOPKYESH-77" value="" style="rounded=1;whiteSpace=wrap;html=1;labelBackgroundColor=none;strokeColor=#DB918D;strokeWidth=3;align=left;verticalAlign=top;fontFamily=Helvetica;fontSize=12;fontColor=#FFFFFF;fillColor=none;container=0;" parent="WaaS-qGKVErQEOPKYESH-104" vertex="1">
          <mxGeometry x="280" y="38" width="75" height="60" as="geometry" />
        </mxCell>
        <mxCell id="WaaS-qGKVErQEOPKYESH-78" value="Requeridos" style="text;html=1;strokeColor=none;fillColor=none;align=left;verticalAlign=middle;whiteSpace=wrap;rounded=0;fontSize=12;fontFamily=Helvetica;fontColor=#FFFFFF;container=0;" parent="WaaS-qGKVErQEOPKYESH-104" vertex="1">
          <mxGeometry x="15" y="8" width="75" height="30" as="geometry" />
        </mxCell>
        <mxCell id="WaaS-qGKVErQEOPKYESH-79" value="Opcionales" style="text;html=1;strokeColor=none;fillColor=none;align=left;verticalAlign=middle;whiteSpace=wrap;rounded=0;fontSize=12;fontFamily=Helvetica;fontColor=#FFFFFF;container=0;" parent="WaaS-qGKVErQEOPKYESH-104" vertex="1">
          <mxGeometry x="15" y="98" width="75" height="30" as="geometry" />
        </mxCell>
        <mxCell id="WaaS-qGKVErQEOPKYESH-84" value="" style="sketch=0;outlineConnect=0;dashed=0;verticalLabelPosition=bottom;verticalAlign=top;align=center;html=1;fontSize=12;fontStyle=0;aspect=fixed;pointerEvents=1;shape=mxgraph.aws4.iot_thing_temperature_sensor;rounded=1;labelBackgroundColor=none;strokeWidth=3;fontFamily=Helvetica;" parent="WaaS-qGKVErQEOPKYESH-104" vertex="1">
          <mxGeometry x="27.5" y="43" width="50" height="50" as="geometry" />
        </mxCell>
        <mxCell id="WaaS-qGKVErQEOPKYESH-89" value="" style="sketch=0;outlineConnect=0;fontColor=#232F3E;gradientColor=none;strokeColor=#FFFFFF;fillColor=none;dashed=0;verticalLabelPosition=bottom;verticalAlign=top;align=center;html=1;fontSize=12;fontStyle=0;aspect=fixed;shape=mxgraph.aws4.resourceIcon;resIcon=mxgraph.aws4.windfarm;rounded=1;labelBackgroundColor=none;strokeWidth=3;fontFamily=Helvetica;" parent="WaaS-qGKVErQEOPKYESH-104" vertex="1">
          <mxGeometry x="110.5" y="38" width="60" height="60" as="geometry" />
        </mxCell>
        <mxCell id="WaaS-qGKVErQEOPKYESH-90" value="" style="sketch=0;outlineConnect=0;fontColor=#232F3E;gradientColor=none;strokeColor=#FFFFFF;fillColor=none;dashed=0;verticalLabelPosition=bottom;verticalAlign=top;align=center;html=1;fontSize=12;fontStyle=0;aspect=fixed;shape=mxgraph.aws4.resourceIcon;resIcon=mxgraph.aws4.windfarm;rounded=1;labelBackgroundColor=none;strokeWidth=3;fontFamily=Helvetica;" parent="WaaS-qGKVErQEOPKYESH-104" vertex="1">
          <mxGeometry x="199.5" y="38" width="60" height="60" as="geometry" />
        </mxCell>
        <mxCell id="WaaS-qGKVErQEOPKYESH-91" value="" style="sketch=0;outlineConnect=0;fontColor=#232F3E;gradientColor=none;strokeColor=#FFFFFF;fillColor=none;dashed=0;verticalLabelPosition=bottom;verticalAlign=top;align=center;html=1;fontSize=12;fontStyle=0;aspect=fixed;shape=mxgraph.aws4.resourceIcon;resIcon=mxgraph.aws4.windfarm;rounded=1;labelBackgroundColor=none;strokeWidth=3;fontFamily=Helvetica;" parent="WaaS-qGKVErQEOPKYESH-104" vertex="1">
          <mxGeometry x="287.5" y="38" width="60" height="60" as="geometry" />
        </mxCell>
        <mxCell id="WaaS-qGKVErQEOPKYESH-98" value="" style="sketch=0;outlineConnect=0;fontColor=#232F3E;gradientColor=none;strokeColor=#FFFFFF;fillColor=none;dashed=0;verticalLabelPosition=bottom;verticalAlign=top;align=center;html=1;fontSize=12;fontStyle=0;aspect=fixed;shape=mxgraph.aws4.resourceIcon;resIcon=mxgraph.aws4.generic;rounded=1;labelBackgroundColor=none;strokeWidth=3;fontFamily=Helvetica;" parent="WaaS-qGKVErQEOPKYESH-104" vertex="1">
          <mxGeometry x="109.5" y="128" width="60" height="60" as="geometry" />
        </mxCell>
        <mxCell id="WaaS-qGKVErQEOPKYESH-100" value="" style="sketch=0;outlineConnect=0;fontColor=#232F3E;gradientColor=none;strokeColor=#FFFFFF;fillColor=none;dashed=0;verticalLabelPosition=bottom;verticalAlign=top;align=center;html=1;fontSize=12;fontStyle=0;aspect=fixed;shape=mxgraph.aws4.resourceIcon;resIcon=mxgraph.aws4.generic;rounded=1;labelBackgroundColor=none;strokeWidth=3;fontFamily=Helvetica;" parent="WaaS-qGKVErQEOPKYESH-104" vertex="1">
          <mxGeometry x="200" y="128" width="60" height="60" as="geometry" />
        </mxCell>
        <mxCell id="WaaS-qGKVErQEOPKYESH-105" value="&lt;b style=&quot;border-color: var(--border-color); color: rgb(255, 255, 255); font-family: Helvetica; font-size: 12px; font-style: normal; font-variant-ligatures: normal; font-variant-caps: normal; letter-spacing: normal; orphans: 2; text-align: center; text-indent: 0px; text-transform: none; widows: 2; word-spacing: 0px; -webkit-text-stroke-width: 0px; text-decoration-thickness: initial; text-decoration-style: initial; text-decoration-color: initial;&quot;&gt;North Sector&lt;/b&gt;" style="text;whiteSpace=wrap;html=1;fontSize=12;fontFamily=Helvetica;fontColor=#FFFFFF;" parent="9AoiroFoVsxQzHGqrJnJ-1" vertex="1">
          <mxGeometry x="17" y="34" width="110" height="40" as="geometry" />
        </mxCell>
        <mxCell id="WaaS-qGKVErQEOPKYESH-106" value="&lt;b style=&quot;border-color: var(--border-color); color: rgb(255, 255, 255); font-family: Helvetica; font-size: 12px; font-style: normal; font-variant-ligatures: normal; font-variant-caps: normal; letter-spacing: normal; orphans: 2; text-align: center; text-indent: 0px; text-transform: none; widows: 2; word-spacing: 0px; -webkit-text-stroke-width: 0px; text-decoration-thickness: initial; text-decoration-style: initial; text-decoration-color: initial;&quot;&gt;South Sector&lt;/b&gt;" style="text;whiteSpace=wrap;html=1;fontSize=12;fontFamily=Helvetica;fontColor=#FFFFFF;" parent="9AoiroFoVsxQzHGqrJnJ-1" vertex="1">
          <mxGeometry x="17" y="258" width="110" height="40" as="geometry" />
        </mxCell>
        <mxCell id="WaaS-qGKVErQEOPKYESH-149" value="&lt;div style=&quot;text-align: center;&quot;&gt;&lt;span style=&quot;background-color: initial;&quot;&gt;&lt;b&gt;App: Sede Malaga&lt;/b&gt;&lt;/span&gt;&lt;/div&gt;" style="text;whiteSpace=wrap;html=1;fontSize=12;fontFamily=Helvetica;fontColor=#FFFFFF;" parent="9AoiroFoVsxQzHGqrJnJ-1" vertex="1">
          <mxGeometry width="110" height="40" as="geometry" />
        </mxCell>
      </root>
    </mxGraphModel>
  </diagram>
</mxfile>
